<!-- SPDX-License-Identifier: LicenseRef-OSIRIS-Fair-Source
     Copyright (c) 2026 Coline Derycke. See LICENSE.

     Le scarabee de Khepri poussant un processeur a la place du disque
     solaire : le renouvellement d'un cycle, soit exactement ce que fait
     un serveur qui reinstalle une machine.

     Trace en `currentColor`, avec une couleur posee par la feuille de
     style interne : un favicon est charge SEUL, ou `currentColor` vaut
     noir par defaut, donc invisible sur une barre d'onglets sombre.
     La requete de media le fait suivre le theme du navigateur. -->
<svg xmlns="http://www.w3.org/2000/svg" viewBox="0 0 32 24" fill="currentColor"><style>svg{color:#0E1B1A}@media(prefers-color-scheme:dark){svg{color:#F0F5F3}}</style><defs><mask id="ka-c"><rect width="32" height="24" fill="#fff"/><rect x="15.68" y="14.98" width="0.65" height="7.22" rx=".2" fill="#000"/><rect x="14.21" y="9.85" width="0.53" height="1.61" rx=".14" fill="#000"/><rect x="17.25" y="9.85" width="0.53" height="1.61" rx=".14" fill="#000"/></mask><mask id="ka-a"><rect width="32" height="24" fill="#fff"/><path d="M12.18 12.01L2.36 7.01" stroke="#000" stroke-width="0.40" stroke-linecap="round"/><path d="M12.01 12.73L0.99 12.92" stroke="#000" stroke-width="0.40" stroke-linecap="round"/><path d="M19.82 12.01L29.64 7.01" stroke="#000" stroke-width="0.40" stroke-linecap="round"/><path d="M19.99 12.73L31.01 12.92" stroke="#000" stroke-width="0.40" stroke-linecap="round"/></mask></defs><g mask="url(#ka-a)"><ellipse cx="7.33" cy="11.27" rx="6.37" ry="4.13" transform="rotate(13 7.33 11.27)"/><ellipse cx="24.67" cy="11.27" rx="6.37" ry="4.13" transform="rotate(-13 24.67 11.27)"/></g><path d="M13.34 11.94L10.96 10.23" stroke="currentColor" stroke-width="1.10" stroke-linecap="round"/><path d="M12.68 18.78L10.68 21.63" stroke="currentColor" stroke-width="1.10" stroke-linecap="round"/><path d="M18.66 11.94L21.04 10.23" stroke="currentColor" stroke-width="1.10" stroke-linecap="round"/><path d="M19.32 18.78L21.32 21.63" stroke="currentColor" stroke-width="1.10" stroke-linecap="round"/><g mask="url(#ka-c)"><path d="M13.25 10.13H18.75L18.00 11.84H14.01Z"/><ellipse cx="16.00" cy="13.18" rx="3.80" ry="2.18"/><ellipse cx="16.00" cy="18.02" rx="3.99" ry="4.46"/></g><rect x="13.70" y="2.90" width="4.60" height="4.60" rx=".5"/><rect x="12.75" y="3.38" width="0.95" height="0.69" rx=".18"/><rect x="18.30" y="3.38" width="0.95" height="0.69" rx=".18"/><rect x="14.18" y="1.95" width="0.69" height="0.95" rx=".18"/><rect x="12.75" y="4.86" width="0.95" height="0.69" rx=".18"/><rect x="18.30" y="4.86" width="0.95" height="0.69" rx=".18"/><rect x="15.65" y="1.95" width="0.69" height="0.95" rx=".18"/><rect x="12.75" y="6.33" width="0.95" height="0.69" rx=".18"/><rect x="18.30" y="6.33" width="0.95" height="0.69" rx=".18"/><rect x="17.13" y="1.95" width="0.69" height="0.95" rx=".18"/></svg>
